<svg width="20" height="25" viewBox="0 0 20 25" fill="none" xmlns="http://www.w3.org/2000/svg">
<path d="M4 14.6991H16V12.369H4V14.6991ZM4 11.2039H16V8.87385H4V11.2039ZM4 7.7088H16V5.3787H4V7.7088ZM20 24.0195L16 19.3593H2C1.45 19.3593 0.979002 19.1309 0.587002 18.6742C0.195002 18.2175 -0.000664969 17.6692 1.69779e-06 17.0292V3.0486C1.69779e-06 2.40783 0.196002 1.85909 0.588002 1.40239C0.980002 0.945692 1.45067 0.717731 2 0.718508H18C18.55 0.718508 19.021 0.946857 19.413 1.40356C19.805 1.86026 20.0007 2.4086 20 3.0486V24.0195ZM16.85 17.0292L18 18.3399V3.0486H2V17.0292H16.85Z" fill="#848484"/>
</svg>