<svg width="51" height="51" viewBox="0 0 51 51" fill="none" xmlns="http://www.w3.org/2000/svg">
<g clip-path="url(#clip0_14_1587)">
<path fill-rule="evenodd" clip-rule="evenodd" d="M25.5 4.25C13.7636 4.25 4.25 13.7636 4.25 25.5C4.25 37.2364 13.7636 46.75 25.5 46.75C37.2364 46.75 46.75 37.2364 46.75 25.5C46.75 13.7636 37.2364 4.25 25.5 4.25ZM18.0625 20.1875C18.0625 19.2108 18.2549 18.2437 18.6286 17.3413C19.0024 16.4389 19.5503 15.619 20.2409 14.9284C20.9315 14.2378 21.7514 13.6899 22.6538 13.3161C23.5562 12.9424 24.5233 12.75 25.5 12.75C26.4767 12.75 27.4438 12.9424 28.3462 13.3161C29.2486 13.6899 30.0685 14.2378 30.7591 14.9284C31.4497 15.619 31.9976 16.4389 32.3714 17.3413C32.7451 18.2437 32.9375 19.2108 32.9375 20.1875C32.9375 22.16 32.1539 24.0518 30.7591 25.4466C29.3643 26.8414 27.4725 27.625 25.5 27.625C23.5275 27.625 21.6357 26.8414 20.2409 25.4466C18.8461 24.0518 18.0625 22.16 18.0625 20.1875ZM38.7982 36.091C37.2076 38.0919 35.1853 39.7077 32.8826 40.8174C30.5799 41.9272 28.0562 42.5024 25.5 42.5C22.9438 42.5024 20.4201 41.9272 18.1174 40.8174C15.8147 39.7077 13.7924 38.0919 12.2018 36.091C15.6464 33.6196 20.3469 31.875 25.5 31.875C30.6531 31.875 35.3536 33.6196 38.7982 36.091Z" fill="white"/>
</g>
<defs>
<clipPath id="clip0_14_1587">
<rect width="51" height="51" fill="white"/>
</clipPath>
</defs>
</svg>